<?xml version="1.0" encoding="UTF-8" standalone="no"?>
<svg
   xmlns:dc="http://purl.org/dc/elements/1.1/"
   xmlns:cc="http://creativecommons.org/ns#"
   xmlns:rdf="http://www.w3.org/1999/02/22-rdf-syntax-ns#"
   xmlns:svg="http://www.w3.org/2000/svg"
   xmlns="http://www.w3.org/2000/svg"
   xmlns:xlink="http://www.w3.org/1999/xlink"
   xmlns:sodipodi="http://sodipodi.sourceforge.net/DTD/sodipodi-0.dtd"
   xmlns:inkscape="http://www.inkscape.org/namespaces/inkscape"
   version="1.1"
   width="491"
   height="321"
   viewBox="-249 -166 491 321"
   id="svg288"
   sodipodi:docname="Bongard_problem_convex_polygons.svg"
   inkscape:version="1.0.2 (e86c870879, 2021-01-15)">
  <metadata
     id="metadata292">
    <rdf:RDF>
      <cc:Work
         rdf:about="">
        <dc:format>image/svg+xml</dc:format>
        <dc:type
           rdf:resource="http://purl.org/dc/dcmitype/StillImage" />
        <dc:title>Bongard problem convex polygons</dc:title>
      </cc:Work>
    </rdf:RDF>
  </metadata>
  <sodipodi:namedview
     pagecolor="#ffffff"
     bordercolor="#666666"
     borderopacity="1"
     objecttolerance="10"
     gridtolerance="10"
     guidetolerance="10"
     inkscape:pageopacity="0"
     inkscape:pageshadow="2"
     inkscape:window-width="1920"
     inkscape:window-height="1044"
     id="namedview290"
     showgrid="false"
     fit-margin-top="0"
     fit-margin-left="0"
     fit-margin-right="0"
     fit-margin-bottom="0"
     inkscape:zoom="0.87663487"
     inkscape:cx="137.12497"
     inkscape:cy="176.69044"
     inkscape:window-x="0"
     inkscape:window-y="0"
     inkscape:window-maximized="1"
     inkscape:current-layer="svg288" />
  <title
     id="title210">Bongard problem convex polygons</title>
  <desc
     id="desc212">An example Bongard problem by CMG Lee, the solution being convex shapes (the left set, wbereas the right set are all concave).</desc>
  <defs
     id="defs250">
    <radialGradient
       id="grad_ring"
       cx="0.5"
       cy="0.5"
       r="0.5"
       fx="0.5"
       fy="0.5">
      <stop
         offset="10%"
         stop-color="#ffffff"
         id="stop214" />
      <stop
         offset="90%"
         stop-color="#999999"
         id="stop216" />
    </radialGradient>
    <rect
       id="box"
       x="-40"
       y="-40"
       width="80"
       height="80"
       fill="#ffffff" />
    <g
       id="boxes">
      <use
         xlink:href="#box"
         transform="translate(0,-100)"
         id="use220"
         x="0"
         y="0"
         width="100%"
         height="100%" />
      <use
         xlink:href="#box"
         id="use222"
         x="0"
         y="0"
         width="100%"
         height="100%" />
      <use
         xlink:href="#box"
         transform="translate(0,100)"
         id="use224"
         x="0"
         y="0"
         width="100%"
         height="100%" />
    </g>
    <g
       id="page">
      <rect
         id="rect227"
         x="15"
         y="-160"
         width="230"
         height="320"
         rx="8"
         ry="8"
         fill="#eeeeee" />
      <use
         xlink:href="#boxes"
         transform="translate(85)"
         id="use229"
         x="0"
         y="0"
         width="100%"
         height="100%" />
      <use
         xlink:href="#boxes"
         transform="translate(185)"
         id="use231"
         x="0"
         y="0"
         width="100%"
         height="100%" />
    </g>
    <g
       id="ring">
      <circle
         cx="-30"
         cy="0"
         r="5"
         fill="#333333"
         id="circle234" />
      <circle
         cx="30"
         cy="0"
         r="5"
         fill="#333333"
         id="circle236" />
      <rect
         x="-32"
         y="-3"
         width="64"
         height="6"
         rx="3"
         ry="3"
         fill="url(#grad_ring)"
         id="rect238" />
      <path
         d="M 3,-3 C -9,0 9,0 -3,3"
         id="path240" />
    </g>
    <g
       id="rings">
      <use
         xlink:href="#ring"
         id="use243"
         x="0"
         y="0"
         width="100%"
         height="100%" />
      <use
         xlink:href="#ring"
         transform="translate(0,-30)"
         id="use245"
         x="0"
         y="0"
         width="100%"
         height="100%" />
      <use
         xlink:href="#ring"
         transform="translate(0,30)"
         id="use247"
         x="0"
         y="0"
         width="100%"
         height="100%" />
    </g>
  </defs>
  <g
     font-family="Helvetica, Arial, sans-serif"
     font-size="20px"
     text-anchor="middle"
     stroke-linejoin="round"
     stroke="#000000"
     fill="none"
     id="g286"
     transform="translate(-3.5,-5.5)">
    <use
       xlink:href="#page"
       id="use254"
       x="0"
       y="0"
       width="100%"
       height="100%" />
    <use
       xlink:href="#page"
       transform="scale(-1,1)"
       id="use256"
       x="0"
       y="0"
       width="100%"
       height="100%" />
    <use
       xlink:href="#rings"
       transform="translate(0,-80)"
       id="use258"
       x="0"
       y="0"
       width="100%"
       height="100%" />
    <use
       xlink:href="#rings"
       transform="translate(0,80)"
       id="use260"
       x="0"
       y="0"
       width="100%"
       height="100%" />
    <path
       transform="translate(-185,-100)"
       d="M -30,-20 H 10 V 10 Z"
       fill="#000000"
       id="path262" />
    <ellipse
       transform="translate(-185)"
       cx="0"
       cy="20"
       rx="30"
       ry="10"
       id="ellipse264" />
    <rect
       transform="rotate(-30,94.10254,395.2147)"
       x="-10"
       y="-20"
       width="20"
       height="30"
       id="rect266" />
    <path
       transform="translate(-85,-100)"
       d="m 20,30 c -100,0 0,-130 0,0"
       id="path268" />
    <path
       transform="translate(-85)"
       d="M -30,0 V 30 H 0 L 30,0 V -30 H 0 Z"
       id="path270" />
    <circle
       transform="translate(-85,100)"
       cx="0"
       cy="10"
       r="20"
       fill="#000000"
       id="circle272" />
    <path
       transform="translate(85,-100)"
       d="M -30,0 A 30,30 0 0 0 30,0 10,10 0 0 0 10,0 10,10 0 0 1 -10,0 10,10 0 0 0 -30,0"
       id="path274" />
    <path
       transform="rotate(-135,42.5,-17.604076)"
       d="m -40,0 h 20 v -30 h 40 z"
       fill="#000000"
       id="path276" />
    <path
       transform="translate(85,100)"
       d="m 30,-30 c -90,0 0,40 -60,60"
       stroke-width="10"
       stroke-linecap="round"
       id="path278" />
    <path
       transform="translate(185,-100)"
       d="M -20,-20 20,0 -20,20"
       stroke-width="20"
       id="path280" />
    <path
       transform="translate(185)"
       d="m -20,30 c 100,0 0,-80 -10,-50 -10,30 10,0 10,50"
       id="path282" />
    <path
       transform="translate(185,100)"
       d="m -30,-10 v 20 h 20 V 30 H 10 V 10 H 30 V -10 H 10 v -20 h -20 v 20 z"
       id="path284" />
  </g>
</svg>
